# xmcd CD database file
#
# Track frame offsets:
#	150
#	47925
#	50962
#	79400
#	82775
#	108825
#	113175
#	131807
#	136210
#
# Disc length: 2791 seconds
#
# Revision: 0
# Processed by: cddbd v1.5.2PL0 Copyright (c) Steve Scherf et al.
# Submitted via: CDex 1.70beta2
#
DISCID=7b0ae509
DTITLE=Nacci, Alberto - Alam Project Colours
DYEAR=1992
DGENRE=Jazz
TTITLE0=danza araba
TTITLE1=zen
TTITLE2=monte alma
TTITLE3=s(u)ono
TTITLE4=campi
TTITLE5=homm..
TTITLE6=samba
TTITLE7=tati
TTITLE8=nuvole
EXTD=YEAR: 1992
EXTT0=
EXTT1=
EXTT2=
EXTT3=
EXTT4=
EXTT5=
EXTT6=
EXTT7=
EXTT8=
PLAYORDER=
